<?xml version="1.0" encoding="utf-8"?>
<!-- Generator: Adobe Illustrator 28.3.0, SVG Export Plug-In . SVG Version: 6.00 Build 0)  -->
<svg version="1.1" id="Layer_1" xmlns="http://www.w3.org/2000/svg" xmlns:xlink="http://www.w3.org/1999/xlink" x="0px" y="0px"
	 viewBox="0 0 120 30" style="enable-background:new 0 0 120 30;" xml:space="preserve">
<style type="text/css">
	.st0{fill:#1DA1F2;}
</style>
<g>
	<path class="st0" d="M10.5,24.2c0.1-0.2,0.3-0.5,0.3-0.7c0.1-0.2,0.1-0.3,0.1-0.3c-0.1,0-0.7-0.3-1.4-0.7c-1.5-0.8-3.2-2.2-4.3-3.6
		c-0.4-0.5-0.7-1-0.7-1c0.1-0.1,6,2.9,6.8,3.4l0.7,0.5l0.5-0.4c0.5-0.5,6.8-3.7,7-3.5c0.1,0.1-1.2,1.8-2.4,2.8
		c-0.8,0.7-1.6,1.4-2.6,1.8l-1.4,0.7l0.3,0.6c0.2,0.3,0.3,0.7,0.2,0.7c-0.1,0.1-0.5-0.1-0.9-0.3L12,23.8l-0.7,0.4
		C10.5,24.7,10.3,24.7,10.5,24.2z"/>
	<path class="st0" d="M9.5,19.2c-3.9-2.6-4.9-3.2-6-4.3C2.2,13.8,1,12,0.3,10.7C0.1,10.3,0,10,0,10s1.8,1.1,4,2.5
		c4.3,2.8,5.4,3.6,6.3,5.4c0.5,1,1,2.4,0.9,2.4C11,20.2,10.3,19.7,9.5,19.2z"/>
	<path class="st0" d="M13.1,19.7c0.2-1,1.2-2.8,2.2-3.8c0.7-0.8,1.8-1.5,4.9-3.5c2.2-1.4,3.9-2.4,4-2.4c0.1,0.1-1.4,2.5-2.2,3.5
		c-1.4,1.8-2.8,2.8-8.2,6.2l-0.7,0.5L13.1,19.7L13.1,19.7z"/>
	<path class="st0" d="M6.6,12.8C4.2,10.9,2.8,9.5,2,8.3c-0.7-1-1.5-2.8-1.4-3c0,0,0.7,0.5,1.5,1.1s2.1,1.6,2.9,2.3
		c1.6,1.3,2.5,2.3,3.1,3.5c0.4,0.9,0.7,2.2,0.5,2.2C8.5,14.3,7.7,13.7,6.6,12.8z"/>
	<path class="st0" d="M15.6,13.7c0.5-2.1,1.4-3.2,5-6c1.6-1.2,3-2.3,3-2.2c0.1,0.1-0.9,2-1.5,3c-0.3,0.5-1,1.3-1.4,1.8
		c-0.9,0.9-4.9,4.1-5.1,4.1C15.5,14.3,15.5,14,15.6,13.7z"/>
</g>
</svg>
